<svg id="visual" viewBox="0 0 1920 800" width="1920" height="800" xmlns="http://www.w3.org/2000/svg" xmlns:xlink="http://www.w3.org/1999/xlink" version="1.1"><path d="M0 129L137 137L274 193L411 169L549 113L686 201L823 217L960 121L1097 209L1234 169L1371 129L1509 185L1646 161L1783 233L1920 81L1920 0L1783 0L1646 0L1509 0L1371 0L1234 0L1097 0L960 0L823 0L686 0L549 0L411 0L274 0L137 0L0 0Z" fill="#200034"></path><path d="M0 409L137 305L274 353L411 417L549 393L686 433L823 385L960 337L1097 353L1234 369L1371 417L1509 369L1646 313L1783 449L1920 289L1920 79L1783 231L1646 159L1509 183L1371 127L1234 167L1097 207L960 119L823 215L686 199L549 111L411 167L274 191L137 135L0 127Z" fill="#2f034d"></path><path d="M0 561L137 433L274 465L411 473L549 505L686 513L823 577L960 489L1097 441L1234 505L1371 473L1509 521L1646 473L1783 505L1920 441L1920 287L1783 447L1646 311L1509 367L1371 415L1234 367L1097 351L960 335L823 383L686 431L549 391L411 415L274 351L137 303L0 407Z" fill="#400469"></path><path d="M0 641L137 521L274 529L411 505L549 577L686 553L823 633L960 553L1097 505L1234 569L1371 529L1509 569L1646 505L1783 569L1920 513L1920 439L1783 503L1646 471L1509 519L1371 471L1234 503L1097 439L960 487L823 575L686 511L549 503L411 471L274 463L137 431L0 559Z" fill="#520485"></path><path d="M0 697L137 633L274 625L411 617L549 681L686 657L823 673L960 617L1097 593L1234 641L1371 625L1509 641L1646 609L1783 625L1920 617L1920 511L1783 567L1646 503L1509 567L1371 527L1234 567L1097 503L960 551L823 631L686 551L549 575L411 503L274 527L137 519L0 639Z" fill="#6403a2"></path><path d="M0 761L137 729L274 705L411 705L549 721L686 745L823 729L960 705L1097 705L1234 729L1371 761L1509 729L1646 705L1783 713L1920 721L1920 615L1783 623L1646 607L1509 639L1371 623L1234 639L1097 591L960 615L823 671L686 655L549 679L411 615L274 623L137 631L0 695Z" fill="#7702c1"></path><path d="M0 801L137 801L274 801L411 801L549 801L686 801L823 801L960 801L1097 801L1234 801L1371 801L1509 801L1646 801L1783 801L1920 801L1920 719L1783 711L1646 703L1509 727L1371 759L1234 727L1097 703L960 703L823 727L686 743L549 719L411 703L274 703L137 727L0 759Z" fill="#8a00e0"></path></svg>