<?xml version="1.0" standalone="no"?>
<svg xmlns:xlink="http://www.w3.org/1999/xlink" id="wave" style="transform:rotate(180deg); transition: 0.3s" viewBox="0 0 1440 300" version="1.1" xmlns="http://www.w3.org/2000/svg"><defs><linearGradient id="sw-gradient-0" x1="0" x2="0" y1="1" y2="0"><stop stop-color="rgba(33, 158, 188, 1)" offset="0%"/><stop stop-color="rgba(2, 48, 71, 1)" offset="100%"/></linearGradient></defs><path style="transform:translate(0, 0px); opacity:1" fill="url(#sw-gradient-0)" d="M0,60L20,70C40,80,80,100,120,125C160,150,200,180,240,175C280,170,320,130,360,115C400,100,440,110,480,130C520,150,560,180,600,160C640,140,680,70,720,65C760,60,800,120,840,160C880,200,920,220,960,230C1000,240,1040,240,1080,245C1120,250,1160,260,1200,220C1240,180,1280,90,1320,65C1360,40,1400,80,1440,105C1480,130,1520,140,1560,135C1600,130,1640,110,1680,115C1720,120,1760,150,1800,180C1840,210,1880,240,1920,230C1960,220,2000,170,2040,155C2080,140,2120,160,2160,185C2200,210,2240,240,2280,240C2320,240,2360,210,2400,180C2440,150,2480,120,2520,105C2560,90,2600,90,2640,95C2680,100,2720,110,2760,100C2800,90,2840,60,2860,45L2880,30L2880,300L2860,300C2840,300,2800,300,2760,300C2720,300,2680,300,2640,300C2600,300,2560,300,2520,300C2480,300,2440,300,2400,300C2360,300,2320,300,2280,300C2240,300,2200,300,2160,300C2120,300,2080,300,2040,300C2000,300,1960,300,1920,300C1880,300,1840,300,1800,300C1760,300,1720,300,1680,300C1640,300,1600,300,1560,300C1520,300,1480,300,1440,300C1400,300,1360,300,1320,300C1280,300,1240,300,1200,300C1160,300,1120,300,1080,300C1040,300,1000,300,960,300C920,300,880,300,840,300C800,300,760,300,720,300C680,300,640,300,600,300C560,300,520,300,480,300C440,300,400,300,360,300C320,300,280,300,240,300C200,300,160,300,120,300C80,300,40,300,20,300L0,300Z"/></svg>